<?xml version="1.0" standalone="no"?>
<!DOCTYPE svg PUBLIC "-//W3C//DTD SVG 20010904//EN"
 "http://www.w3.org/TR/2001/REC-SVG-20010904/DTD/svg10.dtd">
<svg version="1.0" xmlns="http://www.w3.org/2000/svg"
 width="700.000000pt" height="700.000000pt" viewBox="0 0 700.000000 700.000000"
 preserveAspectRatio="xMidYMid meet">
<metadata>
Created by potrace 1.14, written by Peter Selinger 2001-2017
</metadata>
<g transform="translate(0.000000,700.000000) scale(0.100000,-0.100000)"
fill="#000000" stroke="none">
<path d="M695 6993 c-312 -44 -577 -278 -667 -590 l-23 -78 0 -2825 0 -2825
23 -78 c82 -283 294 -492 582 -574 62 -17 178 -18 2890 -18 l2825 0 78 23
c283 82 492 294 574 582 17 62 18 178 18 2890 0 2712 -1 2828 -18 2890 -81
285 -285 494 -569 582 l-73 23 -2805 1 c-1543 1 -2818 -1 -2835 -3z m3057
-1075 l3 -193 30 -3 c17 -2 86 -14 153 -28 911 -182 1616 -911 1771 -1832 l18
-107 191 -3 192 -2 0 -250 0 -250 -192 -2 -191 -3 -18 -107 c-37 -217 -96
-402 -193 -603 -119 -248 -245 -425 -435 -615 -263 -263 -553 -440 -908 -554
-100 -32 -312 -80 -388 -88 l-30 -3 -3 -192 -2 -193 -250 0 -250 0 -2 192 -3
191 -107 18 c-364 62 -717 216 -1010 441 -119 92 -304 277 -396 396 -221 287
-374 631 -434 977 -11 66 -22 126 -24 133 -3 9 -50 12 -194 12 l-190 0 0 250
0 250 190 0 c144 0 191 3 194 13 2 6 13 66 24 132 159 912 895 1648 1807 1807
66 11 126 22 133 24 9 3 12 50 12 194 l0 190 250 0 250 0 2 -192z"/>
<path d="M3268 5225 c-709 -101 -1275 -604 -1453 -1290 -81 -314 -70 -665 31
-974 210 -639 763 -1099 1431 -1186 698 -92 1385 254 1740 876 87 152 165 372
198 556 25 139 30 367 11 509 -100 757 -649 1342 -1402 1494 -132 27 -420 35
-556 15z m485 -829 c316 -94 546 -325 644 -643 24 -80 27 -103 27 -253 0 -151
-2 -172 -27 -253 -88 -284 -287 -506 -549 -610 -132 -53 -181 -62 -353 -61
-145 0 -168 3 -248 27 -320 98 -546 324 -644 644 -24 79 -27 104 -27 248 -1
172 7 219 61 353 82 206 247 385 448 484 153 76 258 99 440 94 115 -3 156 -8
228 -30z"/>
</g>
</svg>
